{
	"buffers":[{
		"uri":"data:application/octet-stream;base64,",
		"byteLength":105664
	},
	{
		"uri":"data:application/octet-stream;base64,",
		"byteLength":3940
	},
	{
		"uri":"data:application/octet-stream;base64,",
		"byteLength":892692
	},
	{
		"uri":"data:application/octet-stream;base64,",
		"byteLength":31956
	},
	{
		"uri":"data:application/octet-stream;base64,",
		"byteLength":1204
	}],
	"asset":{
		"version":"2.0",
		"generator":"Maxon Cinema 4D 2024.2.0 (#200000219)"
	},
	"scenes":[{
		"nodes":[0]
	}],
	"nodes":[{
		"name":"",
		"translation":[1.905506650246025e-7,
		0.0001500000071246177,
		-9.795346755936407e-8],
		"rotation":[-0.6653264760971069,
		-0.11731500923633576,
		0.12802687287330628,
		-0.7260764241218567],
		"scale":[1.0,
		1.0,
		1.0],
		"children":[1,
		2]
	},
	{
		"name":"",
		"translation":[-0.000011494174032122828,
		-0.009048123843967915,
		0.000005908634193474427],
		"rotation":[0.0,
		0.0,
		0.0,
		-1.0],
		"scale":[1.0,
		1.0,
		1.0],
		"children":[3,
		4,
		5]
	},
	{
		"name":"",
		"translation":[0.000011494174032122828,
		0.009048123843967915,
		-0.000005908634193474427],
		"rotation":[0.0,
		0.0,
		0.0,
		-1.0],
		"scale":[1.0,
		1.0,
		1.0],
		"children":[6,
		7]
	},
	{
		"mesh":0,
		"name":"-jiban"
	},
	{
		"mesh":1,
		"name":"-dianlu"
	},
	{
		"mesh":2,
		"name":"-"
	},
	{
		"mesh":3,
		"name":"-lv"
	},
	{
		"mesh":4,
		"name":"-lv-logo"
	}],
	"meshes":[{
		"name":"-jiban",
		"primitives":[{
			"attributes":{
				"POSITION":1,
				"NORMAL":2,
				"TEXCOORD_0":3
			},
			"indices":0,
			"material":0
		}]
	},
	{
		"name":"-dianlu",
		"primitives":[{
			"attributes":{
				"POSITION":5,
				"NORMAL":6,
				"TEXCOORD_0":7
			},
			"indices":4,
			"material":1
		}]
	},
	{
		"name":"-",
		"primitives":[{
			"attributes":{
				"POSITION":9,
				"NORMAL":10,
				"TEXCOORD_0":11
			},
			"indices":8,
			"material":2
		}]
	},
	{
		"name":"-lv",
		"primitives":[{
			"attributes":{
				"POSITION":13,
				"NORMAL":14,
				"TEXCOORD_0":15
			},
			"indices":12,
			"material":3
		}]
	},
	{
		"name":"-lv-logo",
		"primitives":[{
			"attributes":{
				"POSITION":17,
				"NORMAL":18,
				"TEXCOORD_0":19
			},
			"indices":16,
			"material":4
		}]
	}],
	"accessors":[{
		"bufferView":0,
		"type":"SCALAR",
		"componentType":5123,
		"count":7872,
		"byteOffset":0,
		"min":[0],
		"max":[2809]
	},
	{
		"bufferView":1,
		"type":"VEC3",
		"componentType":5126,
		"count":2810,
		"byteOffset":0,
		"min":[-0.530823290348053,
		-0.01809624768793583,
		-0.47050246596336367],
		"max":[0.530823290348053,
		0.01809624768793583,
		0.47050246596336367]
	},
	{
		"bufferView":1,
		"type":"VEC3",
		"componentType":5126,
		"count":2810,
		"byteOffset":12,
		"min":[-0.9953721165657044,
		-1.0,
		-0.9967418313026428],
		"max":[0.9953721165657044,
		1.0,
		0.9964075684547424]
	},
	{
		"bufferView":1,
		"type":"VEC2",
		"componentType":5126,
		"count":2810,
		"byteOffset":24,
		"min":[0.008424756117165089,
		0.008424757048487664],
		"max":[0.975955069065094,
		0.9915752410888672]
	},
	{
		"bufferView":2,
		"type":"SCALAR",
		"componentType":5123,
		"count":306,
		"byteOffset":0,
		"min":[0],
		"max":[103]
	},
	{
		"bufferView":3,
		"type":"VEC3",
		"componentType":5126,
		"count":104,
		"byteOffset":0,
		"min":[-0.5296338796615601,
		-0.01809624768793583,
		-0.46951404213905337],
		"max":[0.5296338796615601,
		-0.01809624768793583,
		0.46951404213905337]
	},
	{
		"bufferView":3,
		"type":"VEC3",
		"componentType":5126,
		"count":104,
		"byteOffset":12,
		"min":[0.0,
		-1.0,
		0.0],
		"max":[0.0,
		-1.0,
		0.0]
	},
	{
		"bufferView":3,
		"type":"VEC2",
		"componentType":5126,
		"count":104,
		"byteOffset":24,
		"min":[0.0,
		5.551115123125783e-17],
		"max":[1.0,
		1.0]
	},
	{
		"bufferView":4,
		"type":"SCALAR",
		"componentType":5123,
		"count":95178,
		"byteOffset":0,
		"min":[0],
		"max":[21947]
	},
	{
		"bufferView":5,
		"type":"VEC3",
		"componentType":5126,
		"count":21948,
		"byteOffset":0,
		"min":[-0.530823290348053,
		-0.01809624768793583,
		-0.47050240635871889],
		"max":[0.530823290348053,
		0.01809624768793583,
		0.47050240635871889]
	},
	{
		"bufferView":5,
		"type":"VEC3",
		"componentType":5126,
		"count":21948,
		"byteOffset":12,
		"min":[-0.9929537177085877,
		-1.0,
		-0.9952107667922974],
		"max":[0.9929537177085877,
		1.0,
		0.9952107667922974]
	},
	{
		"bufferView":5,
		"type":"VEC2",
		"componentType":5126,
		"count":21948,
		"byteOffset":24,
		"min":[0.008424756117165089,
		0.008424757048487664],
		"max":[0.991294264793396,
		0.9915752410888672]
	},
	{
		"bufferView":6,
		"type":"SCALAR",
		"componentType":5123,
		"count":2730,
		"byteOffset":0,
		"min":[0],
		"max":[827]
	},
	{
		"bufferView":7,
		"type":"VEC3",
		"componentType":5126,
		"count":828,
		"byteOffset":0,
		"min":[-0.48258963227272036,
		8.632293090842112e-18,
		-0.4282660484313965],
		"max":[0.4825436770915985,
		0.10254541039466858,
		0.4282896816730499]
	},
	{
		"bufferView":7,
		"type":"VEC3",
		"componentType":5126,
		"count":828,
		"byteOffset":12,
		"min":[-1.0,
		-1.0,
		-1.0],
		"max":[1.0,
		0.9889070391654968,
		1.0]
	},
	{
		"bufferView":7,
		"type":"VEC2",
		"componentType":5126,
		"count":828,
		"byteOffset":24,
		"min":[0.00781636405736208,
		0.007816363126039505],
		"max":[0.9921836256980896,
		0.9873192310333252]
	},
	{
		"bufferView":8,
		"type":"SCALAR",
		"componentType":5123,
		"count":90,
		"byteOffset":0,
		"min":[0],
		"max":[31]
	},
	{
		"bufferView":9,
		"type":"VEC3",
		"componentType":5126,
		"count":32,
		"byteOffset":0,
		"min":[-0.4807800054550171,
		0.102545365691185,
		-0.4264564514160156],
		"max":[0.48073405027389529,
		0.10254541039466858,
		0.42648008465766909]
	},
	{
		"bufferView":9,
		"type":"VEC3",
		"componentType":5126,
		"count":32,
		"byteOffset":12,
		"min":[0.0,
		1.0,
		0.0],
		"max":[0.0,
		1.0,
		0.0]
	},
	{
		"bufferView":9,
		"type":"VEC2",
		"componentType":5126,
		"count":32,
		"byteOffset":24,
		"min":[0.0,
		-1.1102230246251566e-16],
		"max":[1.0,
		1.0]
	}],
	"bufferViews":[{
		"buffer":0,
		"byteOffset":0,
		"byteLength":15744,
		"target":34963
	},
	{
		"buffer":0,
		"byteOffset":15744,
		"byteLength":89920,
		"target":34962,
		"byteStride":32
	},
	{
		"buffer":1,
		"byteOffset":0,
		"byteLength":612,
		"target":34963
	},
	{
		"buffer":1,
		"byteOffset":612,
		"byteLength":3328,
		"target":34962,
		"byteStride":32
	},
	{
		"buffer":2,
		"byteOffset":0,
		"byteLength":190356,
		"target":34963
	},
	{
		"buffer":2,
		"byteOffset":190356,
		"byteLength":702336,
		"target":34962,
		"byteStride":32
	},
	{
		"buffer":3,
		"byteOffset":0,
		"byteLength":5460,
		"target":34963
	},
	{
		"buffer":3,
		"byteOffset":5460,
		"byteLength":26496,
		"target":34962,
		"byteStride":32
	},
	{
		"buffer":4,
		"byteOffset":0,
		"byteLength":180,
		"target":34963
	},
	{
		"buffer":4,
		"byteOffset":180,
		"byteLength":1024,
		"target":34962,
		"byteStride":32
	}],
	"images":[{
		"uri":"data:image/png;base64,"
	},
	{
		"uri":"data:image/png;base64,"
	}],
	"samplers":[{
		"magFilter":9729,
		"minFilter":9729,
		"wrapS":10497,
		"wrapT":10497
	},
	{
		"magFilter":9729,
		"minFilter":9729,
		"wrapS":10497,
		"wrapT":10497
	}],
	"textures":[{
		"sampler":0,
		"source":0
	},
	{
		"sampler":1,
		"source":1
	}],
	"materials":[{
		"pbrMetallicRoughness":{
			"baseColorFactor":[0.012983032342173008,
			0.07227185068231748,
			0.02518685962736162,
			1.0],
			"metallicFactor":0.0,
			"roughnessFactor":0.20000000298023225
		},
		"name":"jiban",
		"doubleSided":false,
		"emissiveFactor":[0.0,
		0.0,
		0.0],
		"alphaMode":"OPAQUE"
	},
	{
		"pbrMetallicRoughness":{
			"baseColorTexture":{
				"index":0
			},
			"baseColorFactor":[1.0,
			1.0,
			1.0,
			1.0],
			"metallicFactor":0.0,
			"roughnessFactor":0.20000000298023225
		},
		"name":"dianlu",
		"doubleSided":false,
		"emissiveFactor":[0.0,
		0.0,
		0.0],
		"alphaMode":"OPAQUE"
	},
	{
		"pbrMetallicRoughness":{
			"baseColorFactor":[0.22928328744112318,
			0.10849384191483871,
			0.07173183675466533,
			1.0],
			"metallicFactor":1.0,
			"roughnessFactor":0.1620000076945871
		},
		"name":"",
		"doubleSided":false,
		"emissiveFactor":[0.0,
		0.0,
		0.0],
		"alphaMode":"OPAQUE"
	},
	{
		"pbrMetallicRoughness":{
			"baseColorFactor":[0.15261134267521846,
			0.15261134267521846,
			0.15261134267521846,
			1.0],
			"metallicFactor":1.0,
			"roughnessFactor":0.1620000076945871
		},
		"name":"lv",
		"doubleSided":false,
		"emissiveFactor":[0.0,
		0.0,
		0.0],
		"alphaMode":"OPAQUE"
	},
	{
		"pbrMetallicRoughness":{
			"baseColorTexture":{
				"index":1
			},
			"baseColorFactor":[0.7130000338656828,
			0.7130000338656828,
			0.7130000338656828,
			1.0],
			"metallicFactor":1.0,
			"roughnessFactor":0.2790000132517889
		},
		"name":"lv-logo",
		"doubleSided":false,
		"emissiveFactor":[0.0,
		0.0,
		0.0],
		"alphaMode":"OPAQUE"
	}]
}